<svg width="20" height="15" viewBox="0 0 20 15" fill="none" xmlns="http://www.w3.org/2000/svg">
<path d="M0.114307 14.465C0.199179 14.6266 0.326559 14.7619 0.4827 14.8564C0.638842 14.9508 0.817816 15.0008 1.00031 15.001L19.0003 15.001C19.1825 15.0003 19.361 14.9499 19.5166 14.8553C19.6723 14.7607 19.7992 14.6254 19.8837 14.464C19.9683 14.3027 20.0072 14.1213 19.9964 13.9395C19.9856 13.7577 19.9254 13.5822 19.8223 13.432L10.8223 0.432031C10.7306 0.29879 10.6078 0.189847 10.4646 0.114585C10.3214 0.0393227 10.1621 -1.04745e-06 10.0003 -1.03331e-06C9.83854 -1.01917e-06 9.67919 0.0393228 9.536 0.114585C9.3928 0.189847 9.27005 0.29879 9.17831 0.432031L0.178306 13.432C0.0742205 13.5819 0.0132178 13.7575 0.00193396 13.9396C-0.0093499 14.1217 0.0295181 14.3035 0.114307 14.465ZM10.0003 2.75803L17.0923 13.001L2.90831 13.001L10.0003 2.75803Z" fill="#B00000"/>
</svg>
